<svg width="501" height="501" viewBox="0 0 501 501" fill="none" xmlns="http://www.w3.org/2000/svg">
<rect x="0.551117" y="0.592041" width="500" height="500" rx="166" fill="white"/>
<g style="mix-blend-mode:exclusion">
<path d="M401.273 348.948C344.725 348.948 303.989 303.12 306.937 248.18C309.349 196.724 350.085 155.184 401.809 154.916C427.269 154.648 442.545 165.368 455.409 165.1C461.037 165.1 467.201 162.956 469.077 157.06L472.829 156.792L478.189 231.296L474.437 231.832C466.397 196.724 436.649 159.472 401.541 159.472C369.917 159.74 342.581 190.024 343.385 235.048C344.457 283.824 378.761 318.932 422.445 317.86C452.729 317.324 473.901 298.564 483.013 274.712L486.229 275.516C479.261 317.592 446.833 348.948 401.273 348.948Z" fill="white"/>
</g>
<g style="mix-blend-mode:exclusion">
<path d="M202.494 349.216L198.742 290.256L202.494 289.452C209.998 311.696 227.687 343.588 253.951 343.856C267.619 343.856 276.463 335.816 276.463 324.828C276.463 313.572 269.495 306.336 251.003 299.1L230.903 290.524C209.462 281.68 197.671 268.28 198.207 247.912C199.011 223.524 221.254 206.372 249.126 206.64C273.246 207.176 287.183 220.308 292.543 204.764H296.563L299.511 260.508L295.491 261.044C289.059 242.016 270.566 210.928 249.126 210.928C236.53 210.66 228.49 218.7 228.49 229.42C228.49 239.872 236.262 248.18 252.074 254.612L272.175 263.188C296.295 273.104 306.747 284.896 306.211 303.924C305.675 333.404 280.215 348.144 255.291 348.144C229.562 347.876 213.215 333.94 206.783 349.216H202.494Z" fill="white"/>
</g>
<g style="mix-blend-mode:exclusion">
<path d="M178.55 229.42C190.342 222.72 197.31 210.124 195.97 201.012C193.558 186.54 172.386 195.92 167.83 175.284C165.15 163.76 172.654 153.844 183.106 151.968C197.578 149.288 207.494 161.348 210.174 175.016C215.266 201.28 198.114 222.452 180.694 232.636L178.55 229.42Z" fill="white"/>
</g>
<g style="mix-blend-mode:exclusion">
<path d="M14.5511 346V342.248C23.9311 342.248 31.1671 336.62 31.1671 318.932V185.468C31.1671 167.512 23.9311 162.152 14.5511 162.152V158.4H98.7031C150.159 158.4 167.043 187.344 167.043 215.752C167.043 243.892 150.159 273.908 98.7031 273.908H73.5111V318.932C73.5111 336.62 83.4271 342.248 96.5591 342.248V346H14.5511ZM73.5111 269.352H87.4471C112.371 269.352 124.967 242.82 124.431 216.02C123.895 189.22 112.639 162.956 87.1791 162.956H73.5111V269.352Z" fill="white"/>
</g>
</svg>
